<svg xmlns="http://www.w3.org/2000/svg" width="980" height="560" viewBox="0 0 980 560">
<rect width="100%" height="100%" fill="#ffffff"/>
<text x="490.0" y="36.0" font-family="Arial, sans-serif" font-size="26" font-weight="700" text-anchor="middle" fill="#1f2428">Humanoid: robustness did not require a return cost</text>
<text x="490.0" y="542.0" font-family="Arial, sans-serif" font-size="13" font-weight="400" text-anchor="middle" fill="#5f6c72">Higher means better return; error bars are paired bootstrap 95% CIs</text>
<line x1="95" x2="935" y1="455.0" y2="455.0" stroke="#ded8cd" stroke-width="1"/>
<text x="83.0" y="460.0" font-family="Arial, sans-serif" font-size="13" font-weight="400" text-anchor="end" fill="#445057">-20</text>
<line x1="95" x2="935" y1="407.5" y2="407.5" stroke="#ded8cd" stroke-width="1"/>
<text x="83.0" y="412.5" font-family="Arial, sans-serif" font-size="13" font-weight="400" text-anchor="end" fill="#445057">0</text>
<line x1="95" x2="935" y1="360.0" y2="360.0" stroke="#ded8cd" stroke-width="1"/>
<text x="83.0" y="365.0" font-family="Arial, sans-serif" font-size="13" font-weight="400" text-anchor="end" fill="#445057">20</text>
<line x1="95" x2="935" y1="312.5" y2="312.5" stroke="#ded8cd" stroke-width="1"/>
<text x="83.0" y="317.5" font-family="Arial, sans-serif" font-size="13" font-weight="400" text-anchor="end" fill="#445057">40</text>
<line x1="95" x2="935" y1="265.0" y2="265.0" stroke="#ded8cd" stroke-width="1"/>
<text x="83.0" y="270.0" font-family="Arial, sans-serif" font-size="13" font-weight="400" text-anchor="end" fill="#445057">60</text>
<line x1="95" x2="935" y1="217.5" y2="217.5" stroke="#ded8cd" stroke-width="1"/>
<text x="83.0" y="222.5" font-family="Arial, sans-serif" font-size="13" font-weight="400" text-anchor="end" fill="#445057">80</text>
<line x1="95" x2="935" y1="170.0" y2="170.0" stroke="#ded8cd" stroke-width="1"/>
<text x="83.0" y="175.0" font-family="Arial, sans-serif" font-size="13" font-weight="400" text-anchor="end" fill="#445057">100</text>
<line x1="95" x2="935" y1="122.5" y2="122.5" stroke="#ded8cd" stroke-width="1"/>
<text x="83.0" y="127.5" font-family="Arial, sans-serif" font-size="13" font-weight="400" text-anchor="end" fill="#445057">120</text>
<line x1="95" x2="935" y1="75.0" y2="75.0" stroke="#ded8cd" stroke-width="1"/>
<text x="83.0" y="80.0" font-family="Arial, sans-serif" font-size="13" font-weight="400" text-anchor="end" fill="#445057">140</text>
<line x1="95" x2="935" y1="407.5" y2="407.5" stroke="#1f2428" stroke-width="1.6"/>
<line x1="95" x2="95" y1="75" y2="455" stroke="#1f2428" stroke-width="1.5"/>
<text x="24.0" y="265.0" font-family="Arial, sans-serif" font-size="16" font-weight="600" text-anchor="middle" transform="rotate(-90 24 265.0)" fill="#1f2428">return-AUC gain</text>
<text x="235.0" y="495.0" font-family="Arial, sans-serif" font-size="16" font-weight="500" text-anchor="middle" fill="#1f2428">push</text>
<rect x="155.0" y="267.9" width="65.6" height="139.6" fill="#ff8a1d"/>
<line x1="187.8" x2="187.8" y1="197.4" y2="341.9" stroke="#1f2428" stroke-width="2"/>
<line x1="179.8" x2="195.8" y1="197.4" y2="197.4" stroke="#1f2428" stroke-width="2"/>
<line x1="179.8" x2="195.8" y1="341.9" y2="341.9" stroke="#1f2428" stroke-width="2"/>
<rect x="235.0" y="266.9" width="65.6" height="140.6" fill="#f6b54b"/>
<line x1="267.8" x2="267.8" y1="196.8" y2="342.3" stroke="#1f2428" stroke-width="2"/>
<line x1="259.8" x2="275.8" y1="196.8" y2="196.8" stroke="#1f2428" stroke-width="2"/>
<line x1="259.8" x2="275.8" y1="342.3" y2="342.3" stroke="#1f2428" stroke-width="2"/>
<text x="515.0" y="495.0" font-family="Arial, sans-serif" font-size="16" font-weight="500" text-anchor="middle" fill="#1f2428">sensor</text>
<rect x="435.0" y="161.4" width="65.6" height="246.1" fill="#ff8a1d"/>
<line x1="467.8" x2="467.8" y1="114.2" y2="211.1" stroke="#1f2428" stroke-width="2"/>
<line x1="459.8" x2="475.8" y1="114.2" y2="114.2" stroke="#1f2428" stroke-width="2"/>
<line x1="459.8" x2="475.8" y1="211.1" y2="211.1" stroke="#1f2428" stroke-width="2"/>
<rect x="515.0" y="202.4" width="65.6" height="205.1" fill="#f6b54b"/>
<line x1="547.8" x2="547.8" y1="154.4" y2="252.6" stroke="#1f2428" stroke-width="2"/>
<line x1="539.8" x2="555.8" y1="154.4" y2="154.4" stroke="#1f2428" stroke-width="2"/>
<line x1="539.8" x2="555.8" y1="252.6" y2="252.6" stroke="#1f2428" stroke-width="2"/>
<text x="795.0" y="495.0" font-family="Arial, sans-serif" font-size="16" font-weight="500" text-anchor="middle" fill="#1f2428">slip</text>
<rect x="715.0" y="261.8" width="65.6" height="145.7" fill="#ff8a1d"/>
<line x1="747.8" x2="747.8" y1="189.9" y2="342.5" stroke="#1f2428" stroke-width="2"/>
<line x1="739.8" x2="755.8" y1="189.9" y2="189.9" stroke="#1f2428" stroke-width="2"/>
<line x1="739.8" x2="755.8" y1="342.5" y2="342.5" stroke="#1f2428" stroke-width="2"/>
<rect x="795.0" y="262.1" width="65.6" height="145.4" fill="#f6b54b"/>
<line x1="827.8" x2="827.8" y1="189.6" y2="343.5" stroke="#1f2428" stroke-width="2"/>
<line x1="819.8" x2="835.8" y1="189.6" y2="189.6" stroke="#1f2428" stroke-width="2"/>
<line x1="819.8" x2="835.8" y1="343.5" y2="343.5" stroke="#1f2428" stroke-width="2"/>
<rect x="675" y="76" width="18" height="14" fill="#ff8a1d"/>
<text x="703.0" y="88.0" font-family="Arial, sans-serif" font-size="14" font-weight="400" text-anchor="start" fill="#1f2428">imitation ON-OFF</text>
<rect x="675" y="101" width="18" height="14" fill="#f6b54b"/>
<text x="703.0" y="113.0" font-family="Arial, sans-serif" font-size="14" font-weight="400" text-anchor="start" fill="#1f2428">consolidated-baseline</text>
</svg>
