<svg xmlns="http://www.w3.org/2000/svg" width="980" height="560" viewBox="0 0 980 560">
<rect width="100%" height="100%" fill="#ffffff"/>
<text x="490.0" y="36.0" font-family="Arial, sans-serif" font-size="26" font-weight="700" text-anchor="middle" fill="#1f2428">Humanoid: teacher-guided residual reduces falls</text>
<text x="490.0" y="542.0" font-family="Arial, sans-serif" font-size="13" font-weight="400" text-anchor="middle" fill="#5f6c72">Higher means fewer falls; error bars are paired bootstrap 95% CIs</text>
<line x1="95" x2="935" y1="455.0" y2="455.0" stroke="#ded8cd" stroke-width="1"/>
<text x="83.0" y="460.0" font-family="Arial, sans-serif" font-size="13" font-weight="400" text-anchor="end" fill="#445057">-0.1</text>
<line x1="95" x2="935" y1="400.7" y2="400.7" stroke="#ded8cd" stroke-width="1"/>
<text x="83.0" y="405.7" font-family="Arial, sans-serif" font-size="13" font-weight="400" text-anchor="end" fill="#445057">0</text>
<line x1="95" x2="935" y1="346.4" y2="346.4" stroke="#ded8cd" stroke-width="1"/>
<text x="83.0" y="351.4" font-family="Arial, sans-serif" font-size="13" font-weight="400" text-anchor="end" fill="#445057">0.1</text>
<line x1="95" x2="935" y1="292.1" y2="292.1" stroke="#ded8cd" stroke-width="1"/>
<text x="83.0" y="297.1" font-family="Arial, sans-serif" font-size="13" font-weight="400" text-anchor="end" fill="#445057">0.2</text>
<line x1="95" x2="935" y1="237.9" y2="237.9" stroke="#ded8cd" stroke-width="1"/>
<text x="83.0" y="242.9" font-family="Arial, sans-serif" font-size="13" font-weight="400" text-anchor="end" fill="#445057">0.3</text>
<line x1="95" x2="935" y1="183.6" y2="183.6" stroke="#ded8cd" stroke-width="1"/>
<text x="83.0" y="188.6" font-family="Arial, sans-serif" font-size="13" font-weight="400" text-anchor="end" fill="#445057">0.4</text>
<line x1="95" x2="935" y1="129.3" y2="129.3" stroke="#ded8cd" stroke-width="1"/>
<text x="83.0" y="134.3" font-family="Arial, sans-serif" font-size="13" font-weight="400" text-anchor="end" fill="#445057">0.5</text>
<line x1="95" x2="935" y1="75.0" y2="75.0" stroke="#ded8cd" stroke-width="1"/>
<text x="83.0" y="80.0" font-family="Arial, sans-serif" font-size="13" font-weight="400" text-anchor="end" fill="#445057">0.6</text>
<line x1="95" x2="935" y1="400.7" y2="400.7" stroke="#1f2428" stroke-width="1.6"/>
<line x1="95" x2="95" y1="75" y2="455" stroke="#1f2428" stroke-width="1.5"/>
<text x="24.0" y="265.0" font-family="Arial, sans-serif" font-size="16" font-weight="600" text-anchor="middle" transform="rotate(-90 24 265.0)" fill="#1f2428">fall-AUC reduction</text>
<text x="235.0" y="495.0" font-family="Arial, sans-serif" font-size="16" font-weight="500" text-anchor="middle" fill="#1f2428">push</text>
<rect x="155.0" y="231.1" width="65.6" height="169.7" fill="#009688"/>
<line x1="187.8" x2="187.8" y1="134.2" y2="320.9" stroke="#1f2428" stroke-width="2"/>
<line x1="179.8" x2="195.8" y1="134.2" y2="134.2" stroke="#1f2428" stroke-width="2"/>
<line x1="179.8" x2="195.8" y1="320.9" y2="320.9" stroke="#1f2428" stroke-width="2"/>
<rect x="235.0" y="232.1" width="65.6" height="168.6" fill="#35a99c"/>
<line x1="267.8" x2="267.8" y1="135.9" y2="321.5" stroke="#1f2428" stroke-width="2"/>
<line x1="259.8" x2="275.8" y1="135.9" y2="135.9" stroke="#1f2428" stroke-width="2"/>
<line x1="259.8" x2="275.8" y1="321.5" y2="321.5" stroke="#1f2428" stroke-width="2"/>
<text x="515.0" y="495.0" font-family="Arial, sans-serif" font-size="16" font-weight="500" text-anchor="middle" fill="#1f2428">sensor</text>
<rect x="435.0" y="158.1" width="65.6" height="242.6" fill="#009688"/>
<line x1="467.8" x2="467.8" y1="100.4" y2="217.5" stroke="#1f2428" stroke-width="2"/>
<line x1="459.8" x2="475.8" y1="100.4" y2="100.4" stroke="#1f2428" stroke-width="2"/>
<line x1="459.8" x2="475.8" y1="217.5" y2="217.5" stroke="#1f2428" stroke-width="2"/>
<rect x="515.0" y="180.2" width="65.6" height="220.5" fill="#35a99c"/>
<line x1="547.8" x2="547.8" y1="124.2" y2="234.5" stroke="#1f2428" stroke-width="2"/>
<line x1="539.8" x2="555.8" y1="124.2" y2="124.2" stroke="#1f2428" stroke-width="2"/>
<line x1="539.8" x2="555.8" y1="234.5" y2="234.5" stroke="#1f2428" stroke-width="2"/>
<text x="795.0" y="495.0" font-family="Arial, sans-serif" font-size="16" font-weight="500" text-anchor="middle" fill="#1f2428">slip</text>
<rect x="715.0" y="224.4" width="65.6" height="176.3" fill="#009688"/>
<line x1="747.8" x2="747.8" y1="123.0" y2="316.4" stroke="#1f2428" stroke-width="2"/>
<line x1="739.8" x2="755.8" y1="123.0" y2="123.0" stroke="#1f2428" stroke-width="2"/>
<line x1="739.8" x2="755.8" y1="316.4" y2="316.4" stroke="#1f2428" stroke-width="2"/>
<rect x="795.0" y="229.0" width="65.6" height="171.7" fill="#35a99c"/>
<line x1="827.8" x2="827.8" y1="131.7" y2="319.8" stroke="#1f2428" stroke-width="2"/>
<line x1="819.8" x2="835.8" y1="131.7" y2="131.7" stroke="#1f2428" stroke-width="2"/>
<line x1="819.8" x2="835.8" y1="319.8" y2="319.8" stroke="#1f2428" stroke-width="2"/>
<rect x="675" y="76" width="18" height="14" fill="#009688"/>
<text x="703.0" y="88.0" font-family="Arial, sans-serif" font-size="14" font-weight="400" text-anchor="start" fill="#1f2428">imitation ON-OFF</text>
<rect x="675" y="101" width="18" height="14" fill="#35a99c"/>
<text x="703.0" y="113.0" font-family="Arial, sans-serif" font-size="14" font-weight="400" text-anchor="start" fill="#1f2428">consolidated-baseline</text>
</svg>
