<svg xmlns="http://www.w3.org/2000/svg" width="980" height="560" viewBox="0 0 980 560">
<rect width="100%" height="100%" fill="#ffffff"/>
<text x="490.0" y="36.0" font-family="Arial, sans-serif" font-size="26" font-weight="700" text-anchor="middle" fill="#1f2428">Teacher quality changes the sign of the correction</text>
<text x="490.0" y="542.0" font-family="Arial, sans-serif" font-size="13" font-weight="400" text-anchor="middle" fill="#5f6c72">Positive values indicate the residual helped; negative values indicate harm</text>
<line x1="95" x2="935" y1="455.0" y2="455.0" stroke="#ded8cd" stroke-width="1"/>
<text x="83.0" y="460.0" font-family="Arial, sans-serif" font-size="13" font-weight="400" text-anchor="end" fill="#445057">-1</text>
<line x1="95" x2="935" y1="379.0" y2="379.0" stroke="#ded8cd" stroke-width="1"/>
<text x="83.0" y="384.0" font-family="Arial, sans-serif" font-size="13" font-weight="400" text-anchor="end" fill="#445057">-0.5</text>
<line x1="95" x2="935" y1="303.0" y2="303.0" stroke="#ded8cd" stroke-width="1"/>
<text x="83.0" y="308.0" font-family="Arial, sans-serif" font-size="13" font-weight="400" text-anchor="end" fill="#445057">0</text>
<line x1="95" x2="935" y1="227.0" y2="227.0" stroke="#ded8cd" stroke-width="1"/>
<text x="83.0" y="232.0" font-family="Arial, sans-serif" font-size="13" font-weight="400" text-anchor="end" fill="#445057">0.5</text>
<line x1="95" x2="935" y1="151.0" y2="151.0" stroke="#ded8cd" stroke-width="1"/>
<text x="83.0" y="156.0" font-family="Arial, sans-serif" font-size="13" font-weight="400" text-anchor="end" fill="#445057">1</text>
<line x1="95" x2="935" y1="75.0" y2="75.0" stroke="#ded8cd" stroke-width="1"/>
<text x="83.0" y="80.0" font-family="Arial, sans-serif" font-size="13" font-weight="400" text-anchor="end" fill="#445057">1.5</text>
<line x1="95" x2="935" y1="303.0" y2="303.0" stroke="#1f2428" stroke-width="1.6"/>
<line x1="95" x2="95" y1="75" y2="455" stroke="#1f2428" stroke-width="1.5"/>
<text x="24.0" y="265.0" font-family="Arial, sans-serif" font-size="16" font-weight="600" text-anchor="middle" transform="rotate(-90 24 265.0)" fill="#1f2428">student fall-AUC reduction</text>
<text x="235.0" y="495.0" font-family="Arial, sans-serif" font-size="16" font-weight="500" text-anchor="middle" fill="#1f2428">push</text>
<rect x="155.0" y="263.3" width="65.6" height="39.7" fill="#009688"/>
<line x1="187.8" x2="187.8" y1="244.4" y2="279.9" stroke="#1f2428" stroke-width="2"/>
<line x1="179.8" x2="195.8" y1="244.4" y2="244.4" stroke="#1f2428" stroke-width="2"/>
<line x1="179.8" x2="195.8" y1="279.9" y2="279.9" stroke="#1f2428" stroke-width="2"/>
<rect x="235.0" y="303.0" width="65.6" height="18.6" fill="#cf2e2e"/>
<line x1="267.8" x2="267.8" y1="303.0" y2="345.8" stroke="#1f2428" stroke-width="2"/>
<line x1="259.8" x2="275.8" y1="303.0" y2="303.0" stroke="#1f2428" stroke-width="2"/>
<line x1="259.8" x2="275.8" y1="345.8" y2="345.8" stroke="#1f2428" stroke-width="2"/>
<text x="515.0" y="495.0" font-family="Arial, sans-serif" font-size="16" font-weight="500" text-anchor="middle" fill="#1f2428">sensor</text>
<rect x="435.0" y="236.5" width="65.6" height="66.5" fill="#009688"/>
<line x1="467.8" x2="467.8" y1="217.5" y2="246.0" stroke="#1f2428" stroke-width="2"/>
<line x1="459.8" x2="475.8" y1="217.5" y2="217.5" stroke="#1f2428" stroke-width="2"/>
<line x1="459.8" x2="475.8" y1="246.0" y2="246.0" stroke="#1f2428" stroke-width="2"/>
<rect x="515.0" y="303.0" width="65.6" height="15.8" fill="#cf2e2e"/>
<line x1="547.8" x2="547.8" y1="312.5" y2="322.0" stroke="#1f2428" stroke-width="2"/>
<line x1="539.8" x2="555.8" y1="312.5" y2="312.5" stroke="#1f2428" stroke-width="2"/>
<line x1="539.8" x2="555.8" y1="322.0" y2="322.0" stroke="#1f2428" stroke-width="2"/>
<text x="795.0" y="495.0" font-family="Arial, sans-serif" font-size="16" font-weight="500" text-anchor="middle" fill="#1f2428">slip</text>
<rect x="715.0" y="210.6" width="65.6" height="92.4" fill="#009688"/>
<line x1="747.8" x2="747.8" y1="151.0" y2="257.4" stroke="#1f2428" stroke-width="2"/>
<line x1="739.8" x2="755.8" y1="151.0" y2="151.0" stroke="#1f2428" stroke-width="2"/>
<line x1="739.8" x2="755.8" y1="257.4" y2="257.4" stroke="#1f2428" stroke-width="2"/>
<rect x="795.0" y="303.0" width="65.6" height="55.6" fill="#cf2e2e"/>
<line x1="827.8" x2="827.8" y1="303.0" y2="397.5" stroke="#1f2428" stroke-width="2"/>
<line x1="819.8" x2="835.8" y1="303.0" y2="303.0" stroke="#1f2428" stroke-width="2"/>
<line x1="819.8" x2="835.8" y1="397.5" y2="397.5" stroke="#1f2428" stroke-width="2"/>
<rect x="675" y="76" width="18" height="14" fill="#009688"/>
<text x="703.0" y="88.0" font-family="Arial, sans-serif" font-size="14" font-weight="400" text-anchor="start" fill="#1f2428">strong teacher</text>
<rect x="675" y="101" width="18" height="14" fill="#cf2e2e"/>
<text x="703.0" y="113.0" font-family="Arial, sans-serif" font-size="14" font-weight="400" text-anchor="start" fill="#1f2428">weak teacher</text>
</svg>
